<?xml version="1.0" encoding="UTF-8"?>
<svg width="256" height="256" xmlns="http://www.w3.org/2000/svg" viewBox="0 0 256 256">
  <title>balance-710</title>
  <desc>Peplink balance-710 - Isometric 3D icon</desc>
  
  <!-- Front face -->
  <polygon points="56.55290418778381,145.5 56.55290418778381,180.5 143.1554445662277,130.5 143.1554445662277,95.5" 
           fill="#374151" stroke="#000000" stroke-width="1"/>
  
  <!-- Side face -->
  <polygon points="143.1554445662277,95.5 143.1554445662277,130.5 199.44709581221622,98.0 199.44709581221622,63.00000000000001" 
           fill="#4b5563" stroke="#000000" stroke-width="1"/>
  
  <!-- Top face -->
  <polygon points="56.55290418778381,145.5 143.1554445662277,95.5 199.44709581221622,63.00000000000001 112.84455543377233,113.0" 
           fill="#6b7280" stroke="#000000" stroke-width="1"/>
  <rect x="66.55290418778381" y="170.5" width="8" height="6" fill="#3b82f6" stroke="#000000" stroke-width="0.5"/>
  <rect x="79.05290418778381" y="170.5" width="8" height="6" fill="#3b82f6" stroke="#000000" stroke-width="0.5"/>
  <rect x="91.55290418778381" y="170.5" width="8" height="6" fill="#3b82f6" stroke="#000000" stroke-width="0.5"/>
  <rect x="104.05290418778381" y="170.5" width="8" height="6" fill="#3b82f6" stroke="#000000" stroke-width="0.5"/>
  <rect x="116.55290418778381" y="170.5" width="8" height="6" fill="#3b82f6" stroke="#000000" stroke-width="0.5"/>
  <rect x="129.0529041877838" y="170.5" width="8" height="6" fill="#3b82f6" stroke="#000000" stroke-width="0.5"/>
  <rect x="141.5529041877838" y="170.5" width="8" height="6" fill="#3b82f6" stroke="#000000" stroke-width="0.5"/>
  <circle cx="61.55290418778381" cy="175.5" r="2" fill="#22c55e"/>
  <circle cx="67.55290418778381" cy="175.5" r="2" fill="#3b82f6"/>
  <circle cx="69.54328524455039" cy="130.0" r="4" fill="#22c55e" stroke="#000000" stroke-width="0.5"/>
  <circle cx="143.1554445662277" cy="87.5" r="4" fill="#22c55e" stroke="#000000" stroke-width="0.5"/>
</svg>