<svg xmlns="http://www.w3.org/2000/svg" viewBox="0 0 200 200">
  <!-- Isometric Cube Icon (MAX Adapter) - 30 degree perspective -->
  <defs>
    <linearGradient id="cubeGrad1" x1="0%" y1="0%" x2="100%" y2="100%">
      <stop offset="0%" style="stop-color:#f97316;stop-opacity:1" />
      <stop offset="100%" style="stop-color:#c2410c;stop-opacity:1" />
    </linearGradient>
    <linearGradient id="cubeGrad2" x1="0%" y1="0%" x2="0%" y2="100%">
      <stop offset="0%" style="stop-color:#fb923c;stop-opacity:1" />
      <stop offset="100%" style="stop-color:#ea580c;stop-opacity:1" />
    </linearGradient>
    <linearGradient id="cubeGrad3" x1="0%" y1="0%" x2="100%" y2="0%">
      <stop offset="0%" style="stop-color:#ea580c;stop-opacity:1" />
      <stop offset="100%" style="stop-color:#c2410c;stop-opacity:1" />
    </linearGradient>
  </defs>
  
  <!-- Right face -->
  <path d="M 100 120 L 150 95 L 150 65 L 100 90 Z" fill="url(#cubeGrad1)" stroke="#9a3412" stroke-width="1"/>
  
  <!-- Left face -->
  <path d="M 50 95 L 100 120 L 100 90 L 50 65 Z" fill="url(#cubeGrad2)" stroke="#9a3412" stroke-width="1"/>
  
  <!-- Top face -->
  <path d="M 100 90 L 150 65 L 100 40 L 50 65 Z" fill="url(#cubeGrad3)" stroke="#9a3412" stroke-width="1"/>
  
  <!-- IoT antenna on top -->
  <line x1="100" y1="40" x2="100" y2="25" stroke="#fbbf24" stroke-width="2" stroke-linecap="round"/>
  <circle cx="100" cy="25" r="4" fill="#fbbf24" stroke="#f59e0b" stroke-width="1"/>
  
  <!-- Cellular signal indicator -->
  <rect x="90" y="70" width="4" height="8" fill="#10b981" opacity="0.8"/>
  <rect x="96" y="66" width="4" height="12" fill="#10b981" opacity="0.9"/>
  <rect x="102" y="62" width="4" height="16" fill="#10b981"/>
  
  <!-- Status LED -->
  <circle cx="75" cy="80" r="3" fill="#22c55e" stroke="#16a34a" stroke-width="0.5"/>
  
  <!-- Port detail on side -->
  <rect x="110" y="80" width="12" height="6" rx="1" fill="#374151" stroke="#1f2937" stroke-width="0.5"/>
</svg>
