<?xml version="1.0" encoding="UTF-8"?>
<svg width="256" height="256" xmlns="http://www.w3.org/2000/svg" viewBox="0 0 256 256">
  <defs>
    <filter id="glow">
      <feGaussianBlur stdDeviation="2" result="coloredBlur"/>
      <feMerge>
        <feMergeNode in="coloredBlur"/>
        <feMergeNode in="SourceGraphic"/>
      </feMerge>
    </filter>
  </defs>
  
  <!-- 3D Isometric Box (rack mount) -->
  <!-- Rack ears on left -->
  <rect x="28" y="105" width="10" height="75" fill="#5d6d7e" stroke="#34495e" stroke-width="0.5" rx="1"/>
  <circle cx="33" cy="115" r="2" fill="#34495e"/>
  <circle cx="33" cy="170" r="2" fill="#34495e"/>
  
  <!-- Top face (light grey) -->
  <path d="M 40,100 L 200,135 L 200,155 L 40,120 Z" 
        fill="#95a5a6" stroke="#7f8c8d" stroke-width="1"/>
  
  <!-- Front face (medium grey) -->
  <path d="M 40,120 L 200,155 L 200,180 L 40,145 Z" 
        fill="#7f8c8d" stroke="#5d6d7e" stroke-width="1"/>
  
  <!-- Side face (dark grey) -->
  <path d="M 200,135 L 220,143 L 220,168 L 200,180 L 200,155 Z" 
        fill="#5d6d7e" stroke="#34495e" stroke-width="1"/>
  
  <!-- Rack ears on right -->
  <rect x="220" y="105" width="10" height="75" fill="#5d6d7e" stroke="#34495e" stroke-width="0.5" rx="1"/>
  <circle cx="225" cy="115" r="2" fill="#34495e"/>
  <circle cx="225" cy="170" r="2" fill="#34495e"/>
  
  <!-- Power LED -->
  <circle cx="52" cy="135" r="2.5" fill="#2ecc71" filter="url(#glow)"/>
  <text x="47" y="145" font-size="4" fill="#ecf0f1">PWR</text>
  
  <!-- 24 Port LEDs (green for active, orange for PoE) -->
  <!-- Row 1 (Ports 1-12) -->
  <circle cx="65" cy="135" r="1.5" fill="#22c55e" filter="url(#glow)"/>
  <circle cx="72" cy="136" r="1.5" fill="#22c55e" filter="url(#glow)"/>
  <circle cx="79" cy="137" r="1.5" fill="#22c55e" filter="url(#glow)"/>
  <circle cx="86" cy="138" r="1.5" fill="#22c55e" filter="url(#glow)"/>
  <circle cx="93" cy="139" r="1.5" fill="#22c55e" filter="url(#glow)"/>
  <circle cx="100" cy="140" r="1.5" fill="#22c55e" filter="url(#glow)"/>
  <circle cx="107" cy="141" r="1.5" fill="#22c55e" filter="url(#glow)"/>
  <circle cx="114" cy="142" r="1.5" fill="#22c55e" filter="url(#glow)"/>
  <circle cx="121" cy="143" r="1.5" fill="#22c55e" filter="url(#glow)"/>
  <circle cx="128" cy="144" r="1.5" fill="#22c55e" filter="url(#glow)"/>
  <circle cx="135" cy="145" r="1.5" fill="#22c55e" filter="url(#glow)"/>
  <circle cx="142" cy="146" r="1.5" fill="#22c55e" filter="url(#glow)"/>
  
  <!-- Row 2 (Ports 13-24) -->
  <circle cx="149" cy="147" r="1.5" fill="#e67e22" filter="url(#glow)"/>
  <circle cx="156" cy="148" r="1.5" fill="#e67e22" filter="url(#glow)"/>
  <circle cx="163" cy="149" r="1.5" fill="#e67e22" filter="url(#glow)"/>
  <circle cx="170" cy="150" r="1.5" fill="#e67e22" filter="url(#glow)"/>
  <circle cx="177" cy="151" r="1.5" fill="#e67e22" filter="url(#glow)"/>
  <circle cx="184" cy="152" r="1.5" fill="#e67e22" filter="url(#glow)"/>
  <circle cx="65" cy="147" r="1.5" fill="#e67e22" filter="url(#glow)"/>
  <circle cx="72" cy="148" r="1.5" fill="#e67e22" filter="url(#glow)"/>
  <circle cx="79" cy="149" r="1.5" fill="#e67e22" filter="url(#glow)"/>
  <circle cx="86" cy="150" r="1.5" fill="#e67e22" filter="url(#glow)"/>
  <circle cx="93" cy="151" r="1.5" fill="#e67e22" filter="url(#glow)"/>
  <circle cx="100" cy="152" r="1.5" fill="#e67e22" filter="url(#glow)"/>
  
  <!-- 24 Ports on front (2 rows of 12) -->
  <!-- Row 1 -->
  <rect x="60" y="160" width="5" height="4" fill="#34495e" stroke="#2c3e50" stroke-width="0.3" rx="0.3"/>
  <rect x="67" y="161" width="5" height="4" fill="#34495e" stroke="#2c3e50" stroke-width="0.3" rx="0.3"/>
  <rect x="74" y="162" width="5" height="4" fill="#34495e" stroke="#2c3e50" stroke-width="0.3" rx="0.3"/>
  <rect x="81" y="163" width="5" height="4" fill="#34495e" stroke="#2c3e50" stroke-width="0.3" rx="0.3"/>
  <rect x="88" y="164" width="5" height="4" fill="#34495e" stroke="#2c3e50" stroke-width="0.3" rx="0.3"/>
  <rect x="95" y="165" width="5" height="4" fill="#34495e" stroke="#2c3e50" stroke-width="0.3" rx="0.3"/>
  <rect x="102" y="166" width="5" height="4" fill="#34495e" stroke="#2c3e50" stroke-width="0.3" rx="0.3"/>
  <rect x="109" y="167" width="5" height="4" fill="#34495e" stroke="#2c3e50" stroke-width="0.3" rx="0.3"/>
  <rect x="116" y="168" width="5" height="4" fill="#34495e" stroke="#2c3e50" stroke-width="0.3" rx="0.3"/>
  <rect x="123" y="169" width="5" height="4" fill="#34495e" stroke="#2c3e50" stroke-width="0.3" rx="0.3"/>
  <rect x="130" y="170" width="5" height="4" fill="#34495e" stroke="#2c3e50" stroke-width="0.3" rx="0.3"/>
  <rect x="137" y="171" width="5" height="4" fill="#34495e" stroke="#2c3e50" stroke-width="0.3" rx="0.3"/>
  
  <!-- Row 2 -->
  <rect x="144" y="172" width="5" height="4" fill="#34495e" stroke="#2c3e50" stroke-width="0.3" rx="0.3"/>
  <rect x="151" y="173" width="5" height="4" fill="#34495e" stroke="#2c3e50" stroke-width="0.3" rx="0.3"/>
  <rect x="158" y="174" width="5" height="4" fill="#34495e" stroke="#2c3e50" stroke-width="0.3" rx="0.3"/>
  <rect x="165" y="175" width="5" height="4" fill="#34495e" stroke="#2c3e50" stroke-width="0.3" rx="0.3"/>
  <rect x="172" y="176" width="5" height="4" fill="#34495e" stroke="#2c3e50" stroke-width="0.3" rx="0.3"/>
  <rect x="179" y="177" width="5" height="4" fill="#34495e" stroke="#2c3e50" stroke-width="0.3" rx="0.3"/>
  <rect x="60" y="168" width="5" height="4" fill="#34495e" stroke="#2c3e50" stroke-width="0.3" rx="0.3"/>
  <rect x="67" y="169" width="5" height="4" fill="#34495e" stroke="#2c3e50" stroke-width="0.3" rx="0.3"/>
  <rect x="74" y="170" width="5" height="4" fill="#34495e" stroke="#2c3e50" stroke-width="0.3" rx="0.3"/>
  <rect x="81" y="171" width="5" height="4" fill="#34495e" stroke="#2c3e50" stroke-width="0.3" rx="0.3"/>
  <rect x="88" y="172" width="5" height="4" fill="#34495e" stroke="#2c3e50" stroke-width="0.3" rx="0.3"/>
  <rect x="95" y="173" width="5" height="4" fill="#34495e" stroke="#2c3e50" stroke-width="0.3" rx="0.3"/>
  
  <!-- PoE label -->
  <text x="185" y="138" font-size="5" fill="#e67e22">PoE+</text>
  
  <!-- Model label -->
  <text x="75" y="198" font-size="10" fill="#ecf0f1" font-weight="bold">Switch Enterprise 24</text>
  
  <!-- Peplink branding -->
  <text x="100" y="211" font-size="7" fill="#95a5a6">Peplink</text>
</svg>
