<?xml version="1.0" encoding="UTF-8"?>
<svg width="256" height="256" xmlns="http://www.w3.org/2000/svg" viewBox="0 0 256 256">
  <defs>
    <filter id="glow">
      <feGaussianBlur stdDeviation="2" result="coloredBlur"/>
      <feMerge>
        <feMergeNode in="coloredBlur"/>
        <feMergeNode in="SourceGraphic"/>
      </feMerge>
    </filter>
  </defs>
  
  <!-- 3D Isometric Box -->
  <!-- Top face (light grey) -->
  <path d="M 80,65 L 170,105 L 170,135 L 80,95 Z" 
        fill="#95a5a6" stroke="#7f8c8d" stroke-width="1"/>
  
  <!-- Front face (medium grey) -->
  <path d="M 80,95 L 170,135 L 170,200 L 80,160 Z" 
        fill="#7f8c8d" stroke="#5d6d7e" stroke-width="1"/>
  
  <!-- Side face (dark grey) -->
  <path d="M 170,105 L 195,118 L 195,183 L 170,200 L 170,135 Z" 
        fill="#5d6d7e" stroke="#34495e" stroke-width="1"/>
  
  <!-- Status LEDs on front -->
  <!-- Power LED (green) -->
  <circle cx="95" cy="115" r="3" fill="#2ecc71" filter="url(#glow)"/>
  <text x="90" y="126" font-size="6" fill="#ecf0f1">PWR</text>
  
  <!-- WAN1 LED (blue) -->
  <circle cx="110" cy="115" r="3" fill="#3498db" filter="url(#glow)"/>
  <text x="106" y="126" font-size="6" fill="#ecf0f1">W1</text>
  
  <!-- WAN2 LED (blue) -->
  <circle cx="125" cy="115" r="3" fill="#3498db" filter="url(#glow)"/>
  <text x="121" y="126" font-size="6" fill="#ecf0f1">W2</text>
  
  <!-- WAN3 LED (blue) -->
  <circle cx="140" cy="115" r="3" fill="#3498db" filter="url(#glow)"/>
  <text x="136" y="126" font-size="6" fill="#ecf0f1">W3</text>
  
  <!-- Cellular LED 1 (purple) -->
  <circle cx="152" cy="115" r="3" fill="#9b59b6" filter="url(#glow)"/>
  <text x="147" y="126" font-size="6" fill="#ecf0f1">C1</text>
  
  <!-- WAN Ports -->
  <rect x="95" y="138" width="12" height="8" fill="#34495e" stroke="#2c3e50" stroke-width="0.5" rx="1"/>
  <text x="98" y="144" font-size="5" fill="#95a5a6">1</text>
  
  <rect x="113" y="138" width="12" height="8" fill="#34495e" stroke="#2c3e50" stroke-width="0.5" rx="1"/>
  <text x="116" y="144" font-size="5" fill="#95a5a6">2</text>
  
  <rect x="131" y="138" width="12" height="8" fill="#34495e" stroke="#2c3e50" stroke-width="0.5" rx="1"/>
  <text x="134" y="144" font-size="5" fill="#95a5a6">3</text>
  
  <!-- LAN Ports -->
  <rect x="95" y="152" width="8" height="6" fill="#34495e" stroke="#2c3e50" stroke-width="0.5" rx="0.5"/>
  <rect x="105" y="152" width="8" height="6" fill="#34495e" stroke="#2c3e50" stroke-width="0.5" rx="0.5"/>
  <rect x="115" y="152" width="8" height="6" fill="#34495e" stroke="#2c3e50" stroke-width="0.5" rx="0.5"/>
  <rect x="125" y="152" width="8" height="6" fill="#34495e" stroke="#2c3e50" stroke-width="0.5" rx="0.5"/>
  <rect x="135" y="152" width="8" height="6" fill="#34495e" stroke="#2c3e50" stroke-width="0.5" rx="0.5"/>
  
  <!-- Cellular antenna indicators (2 antennas) -->
  <circle cx="158" cy="75" r="4" fill="#9b59b6" opacity="0.8"/>
  <line x1="158" y1="75" x2="158" y2="65" stroke="#9b59b6" stroke-width="2"/>
  <line x1="154" y1="68" x2="162" y2="68" stroke="#9b59b6" stroke-width="1.5"/>
  <line x1="156" y1="71" x2="160" y2="71" stroke="#9b59b6" stroke-width="1"/>
  
  <circle cx="170" cy="78" r="4" fill="#9b59b6" opacity="0.8"/>
  <line x1="170" y1="78" x2="170" y2="68" stroke="#9b59b6" stroke-width="2"/>
  <line x1="166" y1="71" x2="174" y2="71" stroke="#9b59b6" stroke-width="1.5"/>
  <line x1="168" y1="74" x2="172" y2="74" stroke="#9b59b6" stroke-width="1"/>
  
  <!-- Model label -->
  <text x="100" y="172" font-size="10" fill="#ecf0f1" font-weight="bold">Balance 305</text>
  
  <!-- Peplink branding -->
  <text x="110" y="185" font-size="7" fill="#95a5a6">Peplink</text>
</svg>
