<?xml version="1.0" encoding="UTF-8"?>
<svg width="256" height="256" xmlns="http://www.w3.org/2000/svg" viewBox="0 0 256 256">
  <defs>
    <filter id="glow">
      <feGaussianBlur stdDeviation="2" result="coloredBlur"/>
      <feMerge>
        <feMergeNode in="coloredBlur"/>
        <feMergeNode in="SourceGraphic"/>
      </feMerge>
    </filter>
  </defs>
  
  <!-- 3D Isometric Box (larger) -->
  <!-- Top face (light grey) -->
  <path d="M 60,50 L 185,100 L 185,145 L 60,95 Z" 
        fill="#95a5a6" stroke="#7f8c8d" stroke-width="1"/>
  
  <!-- Front face (medium grey) -->
  <path d="M 60,95 L 185,145 L 185,220 L 60,170 Z" 
        fill="#7f8c8d" stroke="#5d6d7e" stroke-width="1"/>
  
  <!-- Side face (dark grey) -->
  <path d="M 185,100 L 210,113 L 210,188 L 185,220 L 185,145 Z" 
        fill="#5d6d7e" stroke="#34495e" stroke-width="1"/>
  
  <!-- Status LEDs on front - 9 LEDs total -->
  <!-- Power LED (green) -->
  <circle cx="75" cy="115" r="2.5" fill="#2ecc71" filter="url(#glow)"/>
  <text x="70" y="125" font-size="5" fill="#ecf0f1">PWR</text>
  
  <!-- WAN1-7 LEDs (blue) -->
  <circle cx="88" cy="115" r="2.5" fill="#3498db" filter="url(#glow)"/>
  <text x="84" y="125" font-size="5" fill="#ecf0f1">W1</text>
  
  <circle cx="100" cy="115" r="2.5" fill="#3498db" filter="url(#glow)"/>
  <text x="96" y="125" font-size="5" fill="#ecf0f1">W2</text>
  
  <circle cx="112" cy="115" r="2.5" fill="#3498db" filter="url(#glow)"/>
  <text x="108" y="125" font-size="5" fill="#ecf0f1">W3</text>
  
  <circle cx="124" cy="115" r="2.5" fill="#3498db" filter="url(#glow)"/>
  <text x="120" y="125" font-size="5" fill="#ecf0f1">W4</text>
  
  <circle cx="136" cy="115" r="2.5" fill="#3498db" filter="url(#glow)"/>
  <text x="132" y="125" font-size="5" fill="#ecf0f1">W5</text>
  
  <circle cx="148" cy="115" r="2.5" fill="#3498db" filter="url(#glow)"/>
  <text x="144" y="125" font-size="5" fill="#ecf0f1">W6</text>
  
  <circle cx="160" cy="115" r="2.5" fill="#3498db" filter="url(#glow)"/>
  <text x="156" y="125" font-size="5" fill="#ecf0f1">W7</text>
  
  <!-- Cellular LED (purple) -->
  <circle cx="171" cy="115" r="2.5" fill="#9b59b6" filter="url(#glow)"/>
  <text x="167" y="125" font-size="5" fill="#ecf0f1">LTE</text>
  
  <!-- WAN Ports (7) -->
  <rect x="75" y="138" width="9" height="6" fill="#34495e" stroke="#2c3e50" stroke-width="0.5" rx="0.5"/>
  <text x="77" y="142" font-size="4" fill="#95a5a6">1</text>
  
  <rect x="88" y="138" width="9" height="6" fill="#34495e" stroke="#2c3e50" stroke-width="0.5" rx="0.5"/>
  <text x="90" y="142" font-size="4" fill="#95a5a6">2</text>
  
  <rect x="101" y="138" width="9" height="6" fill="#34495e" stroke="#2c3e50" stroke-width="0.5" rx="0.5"/>
  <text x="103" y="142" font-size="4" fill="#95a5a6">3</text>
  
  <rect x="114" y="138" width="9" height="6" fill="#34495e" stroke="#2c3e50" stroke-width="0.5" rx="0.5"/>
  <text x="116" y="142" font-size="4" fill="#95a5a6">4</text>
  
  <rect x="127" y="138" width="9" height="6" fill="#34495e" stroke="#2c3e50" stroke-width="0.5" rx="0.5"/>
  <text x="129" y="142" font-size="4" fill="#95a5a6">5</text>
  
  <rect x="140" y="138" width="9" height="6" fill="#34495e" stroke="#2c3e50" stroke-width="0.5" rx="0.5"/>
  <text x="142" y="142" font-size="4" fill="#95a5a6">6</text>
  
  <rect x="153" y="138" width="9" height="6" fill="#34495e" stroke="#2c3e50" stroke-width="0.5" rx="0.5"/>
  <text x="155" y="142" font-size="4" fill="#95a5a6">7</text>
  
  <!-- SFP Ports (2) -->
  <rect x="165" y="138" width="12" height="6" fill="#5d6d7e" stroke="#2c3e50" stroke-width="0.5" rx="0.5"/>
  <text x="167" y="142" font-size="3" fill="#95a5a6">SFP1</text>
  
  <rect x="165" y="146" width="12" height="6" fill="#5d6d7e" stroke="#2c3e50" stroke-width="0.5" rx="0.5"/>
  <text x="167" y="150" font-size="3" fill="#95a5a6">SFP2</text>
  
  <!-- LAN Ports -->
  <rect x="75" y="152" width="6" height="5" fill="#34495e" stroke="#2c3e50" stroke-width="0.5" rx="0.5"/>
  <rect x="83" y="152" width="6" height="5" fill="#34495e" stroke="#2c3e50" stroke-width="0.5" rx="0.5"/>
  <rect x="91" y="152" width="6" height="5" fill="#34495e" stroke="#2c3e50" stroke-width="0.5" rx="0.5"/>
  <rect x="99" y="152" width="6" height="5" fill="#34495e" stroke="#2c3e50" stroke-width="0.5" rx="0.5"/>
  <rect x="107" y="152" width="6" height="5" fill="#34495e" stroke="#2c3e50" stroke-width="0.5" rx="0.5"/>
  <rect x="115" y="152" width="6" height="5" fill="#34495e" stroke="#2c3e50" stroke-width="0.5" rx="0.5"/>
  <rect x="123" y="152" width="6" height="5" fill="#34495e" stroke="#2c3e50" stroke-width="0.5" rx="0.5"/>
  <rect x="131" y="152" width="6" height="5" fill="#34495e" stroke="#2c3e50" stroke-width="0.5" rx="0.5"/>
  
  <!-- Cellular antenna indicators (2 antennas) -->
  <circle cx="170" cy="65" r="4" fill="#9b59b6" opacity="0.8"/>
  <line x1="170" y1="65" x2="170" y2="55" stroke="#9b59b6" stroke-width="2"/>
  <line x1="166" y1="58" x2="174" y2="58" stroke="#9b59b6" stroke-width="1.5"/>
  <line x1="168" y1="61" x2="172" y2="61" stroke="#9b59b6" stroke-width="1"/>
  
  <circle cx="182" cy="68" r="4" fill="#9b59b6" opacity="0.8"/>
  <line x1="182" y1="68" x2="182" y2="58" stroke="#9b59b6" stroke-width="2"/>
  <line x1="178" y1="61" x2="186" y2="61" stroke="#9b59b6" stroke-width="1.5"/>
  <line x1="180" y1="64" x2="184" y2="64" stroke="#9b59b6" stroke-width="1"/>
  
  <!-- WiFi waves -->
  <path d="M 175,78 Q 180,73 185,78" fill="none" stroke="#22c55e" stroke-width="1" opacity="0.6"/>
  <path d="M 173,81 Q 180,74 187,81" fill="none" stroke="#22c55e" stroke-width="1" opacity="0.4"/>
  
  <!-- Model label -->
  <text x="100" y="180" font-size="10" fill="#ecf0f1" font-weight="bold">Balance 710</text>
  
  <!-- Peplink branding -->
  <text x="112" y="193" font-size="7" fill="#95a5a6">Peplink</text>
</svg>
