<?xml version="1.0" encoding="UTF-8"?>
<svg width="256" height="256" xmlns="http://www.w3.org/2000/svg" viewBox="0 0 256 256">
  <defs>
    <filter id="glow">
      <feGaussianBlur stdDeviation="2" result="coloredBlur"/>
      <feMerge>
        <feMergeNode in="coloredBlur"/>
        <feMergeNode in="SourceGraphic"/>
      </feMerge>
    </filter>
  </defs>
  
  <!-- 3D Isometric Box (very large) -->
  <!-- Top face (light grey) -->
  <path d="M 50,45 L 195,100 L 195,150 L 50,95 Z" 
        fill="#95a5a6" stroke="#7f8c8d" stroke-width="1"/>
  
  <!-- Front face (medium grey) -->
  <path d="M 50,95 L 195,150 L 195,225 L 50,170 Z" 
        fill="#7f8c8d" stroke="#5d6d7e" stroke-width="1"/>
  
  <!-- Side face (dark grey) -->
  <path d="M 195,100 L 220,113 L 220,188 L 195,225 L 195,150 Z" 
        fill="#5d6d7e" stroke="#34495e" stroke-width="1"/>
  
  <!-- Status LEDs on front - 13 WAN + Power -->
  <!-- Power LED (green) -->
  <circle cx="60" cy="115" r="2.5" fill="#2ecc71" filter="url(#glow)"/>
  <text x="55" y="124" font-size="4" fill="#ecf0f1">PWR</text>
  
  <!-- WAN LEDs (blue) - 13 total -->
  <circle cx="72" cy="115" r="2" fill="#3498db" filter="url(#glow)"/>
  <text x="69" y="124" font-size="4" fill="#ecf0f1">1</text>
  
  <circle cx="82" cy="115" r="2" fill="#3498db" filter="url(#glow)"/>
  <text x="79" y="124" font-size="4" fill="#ecf0f1">2</text>
  
  <circle cx="92" cy="115" r="2" fill="#3498db" filter="url(#glow)"/>
  <text x="89" y="124" font-size="4" fill="#ecf0f1">3</text>
  
  <circle cx="102" cy="115" r="2" fill="#3498db" filter="url(#glow)"/>
  <text x="99" y="124" font-size="4" fill="#ecf0f1">4</text>
  
  <circle cx="112" cy="115" r="2" fill="#3498db" filter="url(#glow)"/>
  <text x="109" y="124" font-size="4" fill="#ecf0f1">5</text>
  
  <circle cx="122" cy="115" r="2" fill="#3498db" filter="url(#glow)"/>
  <text x="119" y="124" font-size="4" fill="#ecf0f1">6</text>
  
  <circle cx="132" cy="115" r="2" fill="#3498db" filter="url(#glow)"/>
  <text x="129" y="124" font-size="4" fill="#ecf0f1">7</text>
  
  <circle cx="142" cy="115" r="2" fill="#3498db" filter="url(#glow)"/>
  <text x="139" y="124" font-size="4" fill="#ecf0f1">8</text>
  
  <circle cx="152" cy="115" r="2" fill="#3498db" filter="url(#glow)"/>
  <text x="149" y="124" font-size="4" fill="#ecf0f1">9</text>
  
  <circle cx="162" cy="115" r="2" fill="#3498db" filter="url(#glow)"/>
  <text x="158" y="124" font-size="4" fill="#ecf0f1">10</text>
  
  <circle cx="172" cy="115" r="2" fill="#3498db" filter="url(#glow)"/>
  <text x="168" y="124" font-size="4" fill="#ecf0f1">11</text>
  
  <circle cx="182" cy="115" r="2" fill="#3498db" filter="url(#glow)"/>
  <text x="178" y="124" font-size="4" fill="#ecf0f1">12</text>
  
  <circle cx="192" cy="115" r="2" fill="#3498db" filter="url(#glow)"/>
  <text x="188" y="124" font-size="4" fill="#ecf0f1">13</text>
  
  <!-- WAN Ports (13) - small -->
  <rect x="60" y="135" width="7" height="5" fill="#34495e" stroke="#2c3e50" stroke-width="0.3" rx="0.3"/>
  <rect x="69" y="135" width="7" height="5" fill="#34495e" stroke="#2c3e50" stroke-width="0.3" rx="0.3"/>
  <rect x="78" y="135" width="7" height="5" fill="#34495e" stroke="#2c3e50" stroke-width="0.3" rx="0.3"/>
  <rect x="87" y="135" width="7" height="5" fill="#34495e" stroke="#2c3e50" stroke-width="0.3" rx="0.3"/>
  <rect x="96" y="135" width="7" height="5" fill="#34495e" stroke="#2c3e50" stroke-width="0.3" rx="0.3"/>
  <rect x="105" y="135" width="7" height="5" fill="#34495e" stroke="#2c3e50" stroke-width="0.3" rx="0.3"/>
  <rect x="114" y="135" width="7" height="5" fill="#34495e" stroke="#2c3e50" stroke-width="0.3" rx="0.3"/>
  <rect x="123" y="135" width="7" height="5" fill="#34495e" stroke="#2c3e50" stroke-width="0.3" rx="0.3"/>
  <rect x="132" y="135" width="7" height="5" fill="#34495e" stroke="#2c3e50" stroke-width="0.3" rx="0.3"/>
  <rect x="141" y="135" width="7" height="5" fill="#34495e" stroke="#2c3e50" stroke-width="0.3" rx="0.3"/>
  <rect x="150" y="135" width="7" height="5" fill="#34495e" stroke="#2c3e50" stroke-width="0.3" rx="0.3"/>
  <rect x="159" y="135" width="7" height="5" fill="#34495e" stroke="#2c3e50" stroke-width="0.3" rx="0.3"/>
  <rect x="168" y="135" width="7" height="5" fill="#34495e" stroke="#2c3e50" stroke-width="0.3" rx="0.3"/>
  
  <!-- 10G SFP+ Ports (2) -->
  <rect x="178" y="135" width="14" height="6" fill="#5d6d7e" stroke="#2c3e50" stroke-width="0.5" rx="0.5"/>
  <text x="180" y="139" font-size="3" fill="#22c55e">10G-1</text>
  
  <rect x="178" y="143" width="14" height="6" fill="#5d6d7e" stroke="#2c3e50" stroke-width="0.5" rx="0.5"/>
  <text x="180" y="147" font-size="3" fill="#22c55e">10G-2</text>
  
  <!-- LAN Ports -->
  <rect x="60" y="152" width="6" height="4" fill="#34495e" stroke="#2c3e50" stroke-width="0.3" rx="0.3"/>
  <rect x="68" y="152" width="6" height="4" fill="#34495e" stroke="#2c3e50" stroke-width="0.3" rx="0.3"/>
  <rect x="76" y="152" width="6" height="4" fill="#34495e" stroke="#2c3e50" stroke-width="0.3" rx="0.3"/>
  <rect x="84" y="152" width="6" height="4" fill="#34495e" stroke="#2c3e50" stroke-width="0.3" rx="0.3"/>
  <rect x="92" y="152" width="6" height="4" fill="#34495e" stroke="#2c3e50" stroke-width="0.3" rx="0.3"/>
  <rect x="100" y="152" width="6" height="4" fill="#34495e" stroke="#2c3e50" stroke-width="0.3" rx="0.3"/>
  <rect x="108" y="152" width="6" height="4" fill="#34495e" stroke="#2c3e50" stroke-width="0.3" rx="0.3"/>
  <rect x="116" y="152" width="6" height="4" fill="#34495e" stroke="#2c3e50" stroke-width="0.3" rx="0.3"/>
  <rect x="124" y="152" width="6" height="4" fill="#34495e" stroke="#2c3e50" stroke-width="0.3" rx="0.3"/>
  <rect x="132" y="152" width="6" height="4" fill="#34495e" stroke="#2c3e50" stroke-width="0.3" rx="0.3"/>
  
  <!-- Model label -->
  <text x="90" y="180" font-size="11" fill="#ecf0f1" font-weight="bold">Balance 1350</text>
  
  <!-- Peplink branding -->
  <text x="105" y="193" font-size="7" fill="#95a5a6">Peplink</text>
</svg>
