<?xml version="1.0" encoding="UTF-8"?>
<svg width="400" height="800" xmlns="http://www.w3.org/2000/svg" viewBox="0 0 400 800">
  <!-- Background -->
  <rect width="400" height="800" fill="#0f172a"/>
  
  <!-- Sidebar -->
  <rect x="0" y="0" width="400" height="800" fill="#0f172a" stroke="#334155" stroke-width="2"/>
  
  <!-- Header -->
  <text x="30" y="50" font-size="28" fill="#f1f5f9" font-weight="bold">Flow Network</text>
  <text x="30" y="75" font-size="12" fill="#64748b">Network Topology Manager</text>
  
  <!-- Search Bar -->
  <rect x="20" y="100" width="360" height="40" fill="#1e293b" stroke="#334155" stroke-width="1" rx="20"/>
  <text x="45" y="125" font-size="14" fill="#64748b">Search devices...</text>
  
  <!-- Group 1: Balance Series (Expanded) -->
  <rect x="20" y="160" width="360" height="50" fill="#1e293b" rx="8"/>
  <text x="40" y="188" font-size="18" fill="#3b82f6" font-weight="bold">▼ Balance Series</text>
  <text x="330" y="188" font-size="14" fill="#64748b">11</text>
  
  <!-- Balance Devices (Expanded) -->
  <rect x="30" y="220" width="340" height="45" fill="#334155" rx="5"/>
  <circle cx="50" cy="242" r="6" fill="#22c55e"/>
  <text x="70" y="248" font-size="15" fill="#cbd5e1">Balance 20X</text>
  <text x="300" y="248" font-size="12" fill="#64748b">Active</text>
  
  <rect x="30" y="275" width="340" height="45" fill="#1e293b" rx="5"/>
  <circle cx="50" cy="297" r="6" fill="#22c55e"/>
  <text x="70" y="303" font-size="15" fill="#cbd5e1">Balance 210</text>
  <text x="300" y="303" font-size="12" fill="#64748b">Active</text>
  
  <rect x="30" y="330" width="340" height="45" fill="#334155" rx="5"/>
  <circle cx="50" cy="352" r="6" fill="#22c55e"/>
  <text x="70" y="358" font-size="15" fill="#cbd5e1">Balance 305</text>
  <text x="300" y="358" font-size="12" fill="#64748b">Active</text>
  
  <rect x="30" y="385" width="340" height="45" fill="#1e293b" rx="5"/>
  <circle cx="50" cy="407" r="6" fill="#22c55e"/>
  <text x="70" y="413" font-size="15" fill="#f1f5f9" font-weight="bold">Balance 380</text>
  <text x="290" y="413" font-size="12" fill="#3b82f6">Selected</text>
  
  <!-- Group 2: MAX Series (Collapsed) -->
  <rect x="20" y="460" width="360" height="50" fill="#1e293b" rx="8"/>
  <text x="40" y="488" font-size="18" fill="#94a3b8" font-weight="bold">▶ MAX Series</text>
  <text x="330" y="488" font-size="14" fill="#64748b">7</text>
  
  <!-- Group 3: Access Points (Expanded) -->
  <rect x="20" y="530" width="360" height="50" fill="#1e293b" rx="8"/>
  <text x="40" y="558" font-size="18" fill="#22c55e" font-weight="bold">▼ Access Points</text>
  <text x="330" y="558" font-size="14" fill="#64748b">3</text>
  
  <!-- AP Devices (Expanded) -->
  <rect x="30" y="590" width="340" height="45" fill="#334155" rx="5"/>
  <circle cx="50" cy="612" r="6" fill="#22c55e"/>
  <text x="70" y="618" font-size="15" fill="#cbd5e1">AP One AC Mini</text>
  <text x="300" y="618" font-size="12" fill="#64748b">Active</text>
  
  <rect x="30" y="645" width="340" height="45" fill="#1e293b" rx="5"/>
  <circle cx="50" cy="667" r="6" fill="#fbbf24"/>
  <text x="70" y="673" font-size="15" fill="#cbd5e1">AP One Rugged</text>
  <text x="290" y="673" font-size="12" fill="#fbbf24">Warning</text>
  
  <!-- Group 4: Switches (Collapsed) -->
  <rect x="20" y="710" width="360" height="50" fill="#1e293b" rx="8"/>
  <text x="40" y="738" font-size="18" fill="#94a3b8" font-weight="bold">▶ Switches</text>
  <text x="330" y="738" font-size="14" fill="#64748b">2</text>
  
  <!-- Footer Stats -->
  <rect x="20" y="770" width="170" height="20" fill="#334155" rx="5"/>
  <text x="30" y="784" font-size="11" fill="#22c55e">● 20 Active</text>
  
  <rect x="210" y="770" width="170" height="20" fill="#334155" rx="5"/>
  <text x="220" y="784" font-size="11" fill="#ef4444">● 1 Warning</text>
</svg>
